<svg viewBox="0 0 24 24" fill="#1f2937"
    xmlns="http://www.w3.org/2000/svg">
    <path d="M12 0C5.4 0 0 5.4 0 12s5.4 12 12 12 12-5.4 12-12S18.66 0 12 0zm5.52 17.34c-.24.36-.66.48-1.02.24-2.76-1.68-6.24-2.04-10.38-1.14-.42.12-.78-.18-.9-.54-.12-.42.18-.78.54-.9 4.56-1.02 8.4-.6 11.4 1.32.42.24.48.66.24 1.02zm1.44-3.3c-.3.42-.84.6-1.26.3-3.18-1.92-8.04-2.46-11.82-1.38-.48.12-1.02-.12-1.14-.6-.12-.48.12-1.02.6-1.14 4.2-1.26 9.48-.66 13.02 1.56.42.24.54.84.3 1.26zm.12-3.36C15.24 8.4 8.28 8.16 4.2 9.3c-.6.18-1.2-.18-1.38-.72-.18-.6.18-1.2.72-1.38 4.68-1.44 12.24-1.14 16.8 1.74.54.3.72 1.02.42 1.56-.3.48-1.02.66-1.56.42z" />
</svg>
